<?xml version="1.0" encoding="UTF-8"?>
<svg xmlns="http://www.w3.org/2000/svg" xmlns:xlink="http://www.w3.org/1999/xlink" width="16pt" height="16pt" viewBox="0 0 16 16" version="1.1">
<g id="surface1">
<path style=" stroke:none;fill-rule:nonzero;fill:rgb(51.0%,51.0%,51.0%);fill-opacity:1;" d="M 7.953125 0.261719 L 0 6.199219 L 0 15.644531 L 15.90625 15.644531 L 15.90625 6.199219 Z M 5.753906 4.5 C 5.988281 4.074219 6.308594 3.753906 6.71875 3.539062 C 7.125 3.324219 7.589844 3.214844 8.113281 3.214844 C 8.554688 3.214844 8.953125 3.300781 9.296875 3.472656 C 9.644531 3.648438 9.90625 3.894531 10.089844 4.210938 C 10.269531 4.53125 10.363281 4.878906 10.363281 5.253906 C 10.363281 5.703125 10.226562 6.109375 9.949219 6.472656 C 9.601562 6.933594 9.15625 7.160156 8.613281 7.160156 C 8.464844 7.160156 8.355469 7.136719 8.28125 7.085938 C 8.207031 7.03125 8.15625 6.960938 8.132812 6.859375 C 7.929688 7.0625 7.6875 7.164062 7.414062 7.164062 C 7.121094 7.164062 6.878906 7.0625 6.6875 6.863281 C 6.492188 6.660156 6.398438 6.390625 6.398438 6.054688 C 6.398438 5.640625 6.511719 5.261719 6.746094 4.921875 C 7.027344 4.503906 7.390625 4.296875 7.832031 4.296875 C 8.144531 4.296875 8.375 4.414062 8.527344 4.65625 L 8.589844 4.363281 L 9.292969 4.363281 L 8.890625 6.257812 C 8.867188 6.378906 8.855469 6.457031 8.855469 6.492188 C 8.855469 6.535156 8.863281 6.566406 8.882812 6.589844 C 8.902344 6.613281 8.929688 6.625 8.957031 6.625 C 9.042969 6.625 9.152344 6.574219 9.285156 6.46875 C 9.464844 6.335938 9.609375 6.15625 9.722656 5.929688 C 9.832031 5.703125 9.890625 5.472656 9.890625 5.230469 C 9.890625 4.796875 9.734375 4.433594 9.417969 4.140625 C 9.105469 3.851562 8.664062 3.703125 8.101562 3.703125 C 7.625 3.703125 7.21875 3.800781 6.886719 3.996094 C 6.554688 4.191406 6.304688 4.464844 6.132812 4.820312 C 5.96875 5.171875 5.882812 5.539062 5.882812 5.921875 C 5.882812 6.292969 5.980469 6.632812 6.164062 6.9375 C 6.355469 7.246094 6.617188 7.464844 6.957031 7.605469 C 7.296875 7.746094 7.683594 7.816406 8.121094 7.816406 C 8.542969 7.816406 8.902344 7.757812 9.207031 7.640625 C 9.511719 7.523438 9.757812 7.347656 9.941406 7.113281 L 10.503906 7.113281 C 10.328125 7.46875 10.058594 7.75 9.691406 7.953125 C 9.273438 8.1875 8.765625 8.304688 8.164062 8.304688 C 7.582031 8.304688 7.078125 8.207031 6.65625 8.007812 C 6.230469 7.8125 5.917969 7.523438 5.710938 7.140625 C 5.503906 6.753906 5.402344 6.335938 5.402344 5.886719 C 5.402344 5.390625 5.519531 4.929688 5.753906 4.5 Z M 0.5625 6.386719 L 6.429688 10.324219 L 0.5625 14.867188 Z M 1.007812 15.167969 L 7.953125 9.792969 L 14.902344 15.167969 Z M 15.347656 14.867188 L 9.476562 10.324219 L 15.347656 6.386719 Z M 8.242188 4.933594 C 8.335938 5.039062 8.378906 5.191406 8.378906 5.390625 C 8.378906 5.570312 8.347656 5.761719 8.277344 5.964844 C 8.210938 6.171875 8.128906 6.332031 8.035156 6.4375 C 7.972656 6.511719 7.90625 6.570312 7.839844 6.605469 C 7.75 6.652344 7.65625 6.679688 7.554688 6.679688 C 7.421875 6.679688 7.308594 6.625 7.21875 6.519531 C 7.128906 6.414062 7.082031 6.25 7.082031 6.027344 C 7.082031 5.859375 7.113281 5.664062 7.179688 5.449219 C 7.246094 5.230469 7.34375 5.066406 7.472656 4.945312 C 7.601562 4.828125 7.742188 4.769531 7.890625 4.769531 C 8.03125 4.769531 8.148438 4.824219 8.242188 4.933594 Z M 8.242188 4.933594 "/>
</g>
</svg>
