<?xml version="1.0" encoding="UTF-8"?>
<svg xmlns="http://www.w3.org/2000/svg" xmlns:xlink="http://www.w3.org/1999/xlink" width="24pt" height="24pt" viewBox="0 0 24 24" version="1.1">
<g id="surface1">
<path style=" stroke:none;fill-rule:nonzero;fill:rgb(51.0%,51.0%,51.0%);fill-opacity:1;" d="M 16.34375 13.707031 C 16.34375 13.039062 16.488281 12.425781 16.773438 11.863281 C 17.058594 11.296875 17.457031 10.851562 17.96875 10.527344 C 18.484375 10.203125 19.074219 10.042969 19.730469 10.042969 C 20.082031 10.042969 20.441406 10.085938 20.808594 10.167969 C 21.179688 10.25 21.488281 10.386719 21.742188 10.585938 C 21.992188 10.78125 22.121094 11.046875 22.121094 11.382812 C 22.121094 11.652344 22.039062 11.878906 21.878906 12.058594 C 21.726562 12.238281 21.53125 12.328125 21.292969 12.328125 C 21.179688 12.328125 21.070312 12.308594 20.960938 12.273438 C 20.855469 12.234375 20.75 12.195312 20.640625 12.152344 C 20.535156 12.105469 20.421875 12.070312 20.300781 12.039062 C 20.183594 12.011719 20.03125 11.996094 19.851562 11.996094 C 19.523438 11.996094 19.246094 12.074219 19.019531 12.226562 C 18.796875 12.378906 18.628906 12.585938 18.515625 12.84375 C 18.40625 13.101562 18.351562 13.390625 18.351562 13.707031 C 18.351562 14.019531 18.40625 14.308594 18.515625 14.578125 C 18.625 14.84375 18.785156 15.050781 18.988281 15.207031 C 19.199219 15.363281 19.445312 15.441406 19.730469 15.441406 C 20.054688 15.441406 20.382812 15.378906 20.707031 15.257812 C 21.035156 15.136719 21.230469 15.074219 21.292969 15.074219 C 21.445312 15.074219 21.585938 15.121094 21.710938 15.207031 C 21.835938 15.296875 21.933594 15.410156 22.007812 15.554688 C 22.082031 15.691406 22.121094 15.835938 22.121094 15.980469 C 22.121094 16.292969 21.984375 16.554688 21.710938 16.769531 C 21.441406 16.984375 21.121094 17.140625 20.746094 17.234375 C 20.371094 17.335938 20.035156 17.386719 19.730469 17.386719 C 19.234375 17.386719 18.773438 17.292969 18.359375 17.109375 C 17.949219 16.925781 17.589844 16.664062 17.28125 16.324219 C 16.976562 15.976562 16.742188 15.582031 16.582031 15.136719 C 16.421875 14.6875 16.34375 14.210938 16.34375 13.707031 Z M 12.074219 16.195312 L 12.074219 11.222656 C 12.074219 10.921875 12.167969 10.675781 12.351562 10.476562 C 12.539062 10.277344 12.78125 10.175781 13.074219 10.175781 C 13.320312 10.175781 13.527344 10.242188 13.703125 10.371094 C 13.886719 10.496094 14.011719 10.644531 14.082031 10.816406 C 14.515625 10.300781 14.980469 10.042969 15.476562 10.042969 C 15.746094 10.042969 15.988281 10.140625 16.191406 10.339844 C 16.402344 10.53125 16.507812 10.78125 16.507812 11.089844 C 16.507812 11.402344 16.410156 11.632812 16.210938 11.773438 C 16.019531 11.917969 15.699219 12.054688 15.25 12.183594 C 14.789062 12.316406 14.480469 12.476562 14.324219 12.675781 C 14.164062 12.867188 14.082031 13.21875 14.082031 13.722656 L 14.082031 16.195312 C 14.082031 16.496094 13.988281 16.746094 13.800781 16.953125 C 13.613281 17.152344 13.375 17.253906 13.074219 17.253906 C 12.78125 17.253906 12.539062 17.152344 12.351562 16.953125 C 12.167969 16.746094 12.074219 16.496094 12.074219 16.195312 Z M 9.171875 16.195312 L 9.171875 11.222656 C 9.171875 10.921875 9.261719 10.675781 9.449219 10.476562 C 9.636719 10.277344 9.878906 10.175781 10.171875 10.175781 C 10.46875 10.175781 10.710938 10.277344 10.894531 10.476562 C 11.085938 10.675781 11.179688 10.921875 11.179688 11.222656 L 11.179688 16.195312 C 11.179688 16.496094 11.085938 16.746094 10.894531 16.953125 C 10.710938 17.152344 10.46875 17.253906 10.171875 17.253906 C 9.878906 17.253906 9.636719 17.152344 9.449219 16.953125 C 9.261719 16.746094 9.171875 16.496094 9.171875 16.195312 Z M 8.976562 8.355469 C 8.976562 8.027344 9.09375 7.742188 9.328125 7.503906 C 9.5625 7.265625 9.84375 7.144531 10.171875 7.144531 C 10.503906 7.144531 10.785156 7.261719 11.023438 7.5 C 11.257812 7.734375 11.375 8.019531 11.375 8.355469 C 11.375 8.703125 11.257812 8.992188 11.023438 9.222656 C 10.785156 9.457031 10.503906 9.570312 10.171875 9.570312 C 9.84375 9.570312 9.5625 9.453125 9.328125 9.21875 C 9.09375 8.984375 8.976562 8.695312 8.976562 8.355469 Z M 2.488281 16.265625 L 2.714844 14.570312 L 2.230469 14.570312 C 2.015625 14.570312 1.859375 14.511719 1.757812 14.390625 C 1.65625 14.261719 1.605469 14.113281 1.605469 13.941406 C 1.605469 13.769531 1.65625 13.625 1.757812 13.507812 C 1.859375 13.386719 2.015625 13.324219 2.230469 13.324219 L 2.882812 13.324219 L 3.09375 11.773438 L 2.601562 11.773438 C 2.390625 11.773438 2.234375 11.714844 2.136719 11.59375 C 2.035156 11.464844 1.984375 11.316406 1.984375 11.144531 C 1.984375 10.96875 2.035156 10.820312 2.136719 10.703125 C 2.234375 10.582031 2.390625 10.523438 2.601562 10.523438 L 3.28125 10.523438 L 3.558594 8.5 C 3.589844 8.285156 3.65625 8.121094 3.761719 8.003906 C 3.871094 7.886719 4.042969 7.824219 4.277344 7.824219 C 4.445312 7.824219 4.582031 7.875 4.691406 7.972656 C 4.800781 8.0625 4.855469 8.191406 4.855469 8.355469 C 4.855469 8.425781 4.839844 8.582031 4.804688 8.820312 L 4.574219 10.523438 L 5.738281 10.523438 L 6.007812 8.5 C 6.039062 8.285156 6.105469 8.121094 6.210938 8.003906 C 6.320312 7.886719 6.492188 7.824219 6.726562 7.824219 C 6.894531 7.824219 7.03125 7.875 7.140625 7.972656 C 7.25 8.066406 7.304688 8.195312 7.304688 8.355469 C 7.304688 8.425781 7.289062 8.582031 7.253906 8.820312 L 7.023438 10.523438 L 7.515625 10.523438 C 7.730469 10.523438 7.890625 10.582031 7.984375 10.703125 C 8.085938 10.820312 8.136719 10.96875 8.136719 11.144531 C 8.136719 11.316406 8.085938 11.464844 7.984375 11.59375 C 7.886719 11.714844 7.726562 11.773438 7.515625 11.773438 L 6.859375 11.773438 L 6.652344 13.324219 L 7.140625 13.324219 C 7.359375 13.324219 7.519531 13.382812 7.613281 13.5 C 7.710938 13.617188 7.757812 13.765625 7.757812 13.941406 C 7.757812 14.117188 7.710938 14.265625 7.609375 14.390625 C 7.511719 14.511719 7.355469 14.570312 7.140625 14.570312 L 6.457031 14.570312 L 6.183594 16.585938 C 6.15625 16.796875 6.089844 16.960938 5.984375 17.078125 C 5.878906 17.195312 5.707031 17.253906 5.46875 17.253906 C 5.300781 17.253906 5.160156 17.207031 5.046875 17.117188 C 4.9375 17.019531 4.882812 16.890625 4.882812 16.726562 C 4.882812 16.640625 4.898438 16.488281 4.9375 16.265625 L 5.171875 14.570312 L 4.003906 14.570312 L 3.734375 16.585938 C 3.707031 16.800781 3.636719 16.964844 3.527344 17.085938 C 3.421875 17.199219 3.25 17.253906 3.011719 17.253906 C 2.847656 17.253906 2.707031 17.207031 2.59375 17.117188 C 2.484375 17.019531 2.429688 16.890625 2.429688 16.726562 C 2.429688 16.640625 2.449219 16.488281 2.488281 16.265625 Z M 5.359375 13.324219 L 5.566406 11.773438 L 4.394531 11.773438 L 4.1875 13.324219 Z M 5.359375 13.324219 "/>
</g>
</svg>
